<?xml version="1.0"?>
<svg version="1.1" xmlns="http://www.w3.org/2000/svg" width="250px" height="160px" style="border: dashed 2px #aaa"><path fill="#3241c7" d="M4.8603515625,146.501953125q-0.0771484375-2.314453125-0.0771484375-4.62890625q0-7.251953125,0.771484375-14.5810546875q0.92578125-9.720703125,1.234375-19.1328125q0.30859375-11.0322265625,0.92578125-22.9130859375q0.3857421875-6.48046875,0.3857421875-12.806640625q0-5.1689453125-0.2314453125-10.2607421875q0.771484375-1.7744140625,2.04443359375-2.3916015625t3.20166015625-0.6171875q0.92578125,0,1.96728515625,0.154296875t1.81298828125,0.771484375q1.080078125,0.154296875,2.66162109375,0.30859375t2.43017578125,0.92578125q0.30859375,0.462890625,1.58154296875,3.1630859375t3.0087890625,6.5576171875t3.6259765625,8.37060546875t3.6259765625,8.5634765625t3.0087890625,7.13623046875t1.58154296875,3.857421875q7.251953125-13.115234375,14.1953125-26.96337890625t15.1982421875-26.11474609375q0.771484375-1.080078125,2.66162109375-1.58154296875t3.12451171875-0.50146484375q3.3173828125,0,4.82177734375,1.58154296875t1.96728515625,4.05029296875q0.30859375,1.54296875,0.3857421875,3.3173828125q0.0771484375,0.92578125-0.0771484375,1.9287109375q-0.30859375,2.8544921875-0.30859375,5.400390625q0,17.9755859375-1.234375,35.68115234375t-2.2373046875,35.75830078125q-0.154296875,3.703125-0.154296875,7.71484375t0.154296875,8.33203125q0.0771484375,1.54296875,0.0771484375,3.0087890625q0,6.7890625-1.1572265625,12.65234375q-1.080078125,1.7744140625-3.548828125,2.2373046875t-4.166015625,0.462890625q-3.6259765625,0-6.943359375-1.697265625l-0.8486328125-1.0029296875l-0.30859375-1.234375t-0.154296875-1.234375q0-11.1865234375,0.81005859375-22.52734375t1.81298828125-22.64306640625t2.12158203125-22.56591796875t1.89013671875-22.52734375q-4.5517578125,7.560546875-8.83349609375,15.39111328125t-8.06201171875,15.93115234375q-1.388671875,3.1630859375-2.66162109375,6.7890625t-3.04736328125,6.48046875q-0.92578125,1.388671875-3.12451171875,1.697265625t-3.81884765625,0.30859375q-1.54296875,0-3.20166015625-0.5400390625t-2.27587890625-2.314453125q-2.8544921875-8.7177734375-6.0947265625-17.0498046875t-6.5576171875-16.8955078125q0,5.708984375,0.2314453125,14.77392578125t0.2314453125,18.78564453125t-0.30859375,18.5927734375t-1.4658203125,14.041015625q-0.30859375,1.9287109375-2.50732421875,2.3916015625t-3.81884765625,0.462890625q-1.234375,0-2.35302734375-0.154296875t-2.19873046875-0.6171875z"/><path fill="#" d=""/></svg>
